<svg width="33" height="33" viewBox="0 0 33 33" fill="none" xmlns="http://www.w3.org/2000/svg">
<path d="M16.6381 3.54597V0.272949H33.0032V3.54597H16.6381ZM16.6381 10.092V6.81899H33.0032V10.092H16.6381ZM16.6381 16.6381V13.365H33.0032V16.6381H16.6381ZM28.0119 33.0032C24.6025 33.0032 21.234 32.2599 17.9064 30.7734C14.5788 29.2869 11.5513 27.1799 8.82378 24.4524C6.09626 21.7249 3.98925 18.6973 2.50276 15.3698C1.01626 12.0422 0.27301 8.6737 0.27301 5.26431C0.27301 4.77335 0.436661 4.36422 0.763963 4.03692C1.09127 3.70962 1.50039 3.54597 1.99135 3.54597H8.61921C9.00106 3.54597 9.342 3.67553 9.64203 3.93464C9.94206 4.19375 10.1193 4.5006 10.1739 4.85518L11.2376 10.583C11.2922 11.0194 11.2785 11.3876 11.1967 11.6876C11.1149 11.9876 10.9649 12.2467 10.7467 12.465L6.77814 16.4744C7.32364 17.4836 7.97143 18.4587 8.72149 19.3997C9.47156 20.3407 10.2966 21.2476 11.1967 22.1204C12.0422 22.9659 12.9287 23.7501 13.856 24.4728C14.7834 25.1956 15.7653 25.8571 16.8018 26.4571L20.6476 22.6113C20.893 22.3658 21.2135 22.1817 21.609 22.059C22.0045 21.9363 22.3932 21.9022 22.775 21.9567L28.421 23.1023C28.8028 23.2114 29.1165 23.4091 29.362 23.6955C29.6075 23.9819 29.7302 24.3024 29.7302 24.657V31.2848C29.7302 31.7758 29.5665 32.1849 29.2392 32.5122C28.9119 32.8395 28.5028 33.0032 28.0119 33.0032ZM5.22345 13.365L7.9237 10.6648L7.22818 6.81899H3.58694C3.72332 7.93727 3.91425 9.04192 4.15972 10.1329C4.4052 11.2239 4.75978 12.3013 5.22345 13.365ZM19.8702 28.0118C20.934 28.4755 22.0181 28.8437 23.1228 29.1164C24.2274 29.3892 25.3389 29.5665 26.4572 29.6483V26.048L22.6114 25.2706L19.8702 28.0118Z" fill="#34C9DE"/>
</svg>
