<svg width="29" height="37" viewBox="0 0 29 37" fill="none" xmlns="http://www.w3.org/2000/svg">
<g filter="url(#filter0_d_19_221)">
<path d="M14.6381 33.0032C11.7469 33.0032 9.38762 32.5463 7.56019 31.6326C5.73275 30.7189 4.81903 29.5392 4.81903 28.0936C4.81903 27.139 5.21452 26.3071 6.0055 25.5979C6.79648 24.8888 7.88749 24.3296 9.27852 23.9205L10.2195 27.0299C9.75584 27.1663 9.33307 27.3367 8.95122 27.5413C8.56937 27.7459 8.31025 27.93 8.17388 28.0936C8.52845 28.53 9.34671 28.9119 10.6286 29.2392C11.9106 29.5665 13.2471 29.7301 14.6381 29.7301C16.0291 29.7301 17.3724 29.5665 18.668 29.2392C19.9636 28.9119 20.7886 28.53 21.1432 28.0936C21.0068 27.93 20.7477 27.7459 20.3659 27.5413C19.984 27.3367 19.5613 27.1663 19.0976 27.0299L20.0386 23.9205C21.4296 24.3296 22.5138 24.8888 23.2911 25.5979C24.0685 26.3071 24.4572 27.139 24.4572 28.0936C24.4572 29.5392 23.5434 30.7189 21.716 31.6326C19.8886 32.5463 17.5293 33.0032 14.6381 33.0032ZM14.6381 22.0794C15.129 21.1794 15.6473 20.3543 16.1928 19.6042C16.7383 18.8542 17.2701 18.1382 17.7884 17.4563C18.7976 16.1471 19.6022 14.9674 20.2022 13.9174C20.8023 12.8673 21.1023 11.5649 21.1023 10.0102C21.1023 8.21002 20.475 6.68261 19.2203 5.42796C17.9657 4.1733 16.4383 3.54597 14.6381 3.54597C12.8379 3.54597 11.3105 4.1733 10.0559 5.42796C8.80121 6.68261 8.17388 8.21002 8.17388 10.0102C8.17388 11.5649 8.4739 12.8673 9.07396 13.9174C9.67401 14.9674 10.4786 16.1471 11.4878 17.4563C12.006 18.1382 12.5379 18.8542 13.0834 19.6042C13.6289 20.3543 14.1471 21.1794 14.6381 22.0794ZM14.6381 28.0936C14.3381 28.0936 14.0653 28.005 13.8198 27.8277C13.5744 27.6504 13.3971 27.4117 13.288 27.1117C12.6606 25.1752 11.8697 23.5523 10.915 22.2431C9.9604 20.9339 9.03304 19.6792 8.13296 18.4791C7.26016 17.279 6.50327 16.038 5.86231 14.7561C5.22134 13.4741 4.90086 11.8922 4.90086 10.0102C4.90086 7.28267 5.84185 4.97792 7.72384 3.09593C9.60582 1.21394 11.9106 0.272949 14.6381 0.272949C17.3656 0.272949 19.6704 1.21394 21.5523 3.09593C23.4343 4.97792 24.3753 7.28267 24.3753 10.0102C24.3753 11.8922 24.0617 13.4741 23.4343 14.7561C22.807 16.038 22.0433 17.279 21.1432 18.4791C20.2704 19.6792 19.3499 20.9339 18.3816 22.2431C17.4133 23.5523 16.6155 25.1752 15.9882 27.1117C15.8791 27.4117 15.7018 27.6504 15.4563 27.8277C15.2109 28.005 14.9381 28.0936 14.6381 28.0936ZM14.6381 13.4878C15.5927 13.4878 16.411 13.1468 17.0929 12.465C17.7747 11.7831 18.1157 10.9648 18.1157 10.0102C18.1157 9.05555 17.7747 8.2373 17.0929 7.55542C16.411 6.87354 15.5927 6.5326 14.6381 6.5326C13.6835 6.5326 12.8652 6.87354 12.1833 7.55542C11.5014 8.2373 11.1605 9.05555 11.1605 10.0102C11.1605 10.9648 11.5014 11.7831 12.1833 12.465C12.8652 13.1468 13.6835 13.4878 14.6381 13.4878Z" fill="#DD0C8E"/>
</g>
<defs>
<filter id="filter0_d_19_221" x="0.819031" y="0.272949" width="27.6381" height="40.7302" filterUnits="userSpaceOnUse" color-interpolation-filters="sRGB">
<feFlood flood-opacity="0" result="BackgroundImageFix"/>
<feColorMatrix in="SourceAlpha" type="matrix" values="0 0 0 0 0 0 0 0 0 0 0 0 0 0 0 0 0 0 127 0" result="hardAlpha"/>
<feOffset dy="4"/>
<feGaussianBlur stdDeviation="2"/>
<feComposite in2="hardAlpha" operator="out"/>
<feColorMatrix type="matrix" values="0 0 0 0 0 0 0 0 0 0 0 0 0 0 0 0 0 0 0.25 0"/>
<feBlend mode="normal" in2="BackgroundImageFix" result="effect1_dropShadow_19_221"/>
<feBlend mode="normal" in="SourceGraphic" in2="effect1_dropShadow_19_221" result="shape"/>
</filter>
</defs>
</svg>
