<svg width="19" height="18" viewBox="0 0 19 18" fill="none" xmlns="http://www.w3.org/2000/svg">
<path d="M9.73683 17.3156L8.43946 16.1525C6.93332 14.7955 5.68814 13.6248 4.70393 12.6406C3.71972 11.6564 2.93683 10.7729 2.35525 9.98998C1.77367 9.20708 1.36731 8.48757 1.13617 7.83143C0.905029 7.17529 0.789459 6.50423 0.789459 5.81827C0.789459 4.41651 1.2592 3.2459 2.19867 2.30643C3.13814 1.36695 4.30876 0.897217 5.71051 0.897217C6.48595 0.897217 7.22411 1.06125 7.92499 1.38932C8.62586 1.71739 9.22981 2.17967 9.73683 2.77616C10.2438 2.17967 10.8478 1.71739 11.5487 1.38932C12.2495 1.06125 12.9877 0.897217 13.7631 0.897217C15.1649 0.897217 16.3355 1.36695 17.275 2.30643C18.2145 3.2459 18.6842 4.41651 18.6842 5.81827C18.6842 6.50423 18.5686 7.17529 18.3375 7.83143C18.1063 8.48757 17.7 9.20708 17.1184 9.98998C16.5368 10.7729 15.7539 11.6564 14.7697 12.6406C13.7855 13.6248 12.5403 14.7955 11.0342 16.1525L9.73683 17.3156ZM9.73683 14.8998C11.1684 13.6174 12.3465 12.5176 13.271 11.6005C14.1956 10.6834 14.9263 9.88559 15.4631 9.20709C16 8.52858 16.3728 7.92463 16.5816 7.39524C16.7903 6.86586 16.8947 6.3402 16.8947 5.81827C16.8947 4.92353 16.5965 4.17792 16 3.58143C15.4035 2.98494 14.6579 2.68669 13.7631 2.68669C13.0623 2.68669 12.4136 2.88428 11.8171 3.27945C11.2206 3.67463 10.8105 4.17792 10.5868 4.78932H8.88683C8.66314 4.17792 8.25306 3.67463 7.65657 3.27945C7.06007 2.88428 6.41139 2.68669 5.71051 2.68669C4.81578 2.68669 4.07016 2.98494 3.47367 3.58143C2.87718 4.17792 2.57893 4.92353 2.57893 5.81827C2.57893 6.3402 2.68332 6.86586 2.89209 7.39524C3.10086 7.92463 3.47367 8.52858 4.01051 9.20709C4.54735 9.88559 5.27806 10.6834 6.20262 11.6005C7.12718 12.5176 8.30525 13.6174 9.73683 14.8998Z" fill="white"/>
</svg>
