<svg width="40" height="40" viewBox="0 0 40 40" fill="none" xmlns="http://www.w3.org/2000/svg">
<mask id="mask0_19_205" style="mask-type:alpha" maskUnits="userSpaceOnUse" x="0" y="0" width="40" height="40">
<rect width="39.2762" height="39.2762" fill="#D9D9D9"/>
</mask>
<g mask="url(#mask0_19_205)">
<path d="M6.54603 32.7303C5.64595 32.7303 4.87543 32.4098 4.23446 31.7689C3.59349 31.1279 3.27301 30.3574 3.27301 29.4573V9.81916C3.27301 8.91908 3.59349 8.14856 4.23446 7.50759C4.87543 6.86663 5.64595 6.54614 6.54603 6.54614H32.7302C33.6303 6.54614 34.4008 6.86663 35.0418 7.50759C35.6827 8.14856 36.0032 8.91908 36.0032 9.81916V29.4573C36.0032 30.3574 35.6827 31.1279 35.0418 31.7689C34.4008 32.4098 33.6303 32.7303 32.7302 32.7303H6.54603ZM19.6381 21.2747L6.54603 13.0922V29.4573H32.7302V13.0922L19.6381 21.2747ZM19.6381 18.0017L32.7302 9.81916H6.54603L19.6381 18.0017ZM6.54603 13.0922V9.81916V29.4573V13.0922Z" fill="#DD0C8E"/>
</g>
</svg>
