<svg width="33" height="27" viewBox="0 0 33 27" fill="none" xmlns="http://www.w3.org/2000/svg">
<path d="M3.54603 26.7303C2.64595 26.7303 1.87543 26.4098 1.23446 25.7689C0.593494 25.1279 0.27301 24.3574 0.27301 23.4573V3.81916C0.27301 2.91908 0.593494 2.14856 1.23446 1.50759C1.87543 0.866626 2.64595 0.546143 3.54603 0.546143H29.7302C30.6303 0.546143 31.4008 0.866626 32.0418 1.50759C32.6827 2.14856 33.0032 2.91908 33.0032 3.81916V23.4573C33.0032 24.3574 32.6827 25.1279 32.0418 25.7689C31.4008 26.4098 30.6303 26.7303 29.7302 26.7303H3.54603ZM16.6381 15.2747L3.54603 7.09218V23.4573H29.7302V7.09218L16.6381 15.2747ZM16.6381 12.0017L29.7302 3.81916H3.54603L16.6381 12.0017ZM3.54603 7.09218V3.81916V23.4573V7.09218Z" fill="#DD0C8E"/>
</svg>
