<svg width="21" height="14" viewBox="0 0 21 14" fill="none" xmlns="http://www.w3.org/2000/svg">
<path d="M10.7368 11.3157C11.8553 11.3157 12.8059 10.9243 13.5888 10.1414C14.3717 9.35846 14.7632 8.4078 14.7632 7.28938C14.7632 6.17096 14.3717 5.2203 13.5888 4.43741C12.8059 3.65452 11.8553 3.26307 10.7368 3.26307C9.61843 3.26307 8.66777 3.65452 7.88488 4.43741C7.10198 5.2203 6.71053 6.17096 6.71053 7.28938C6.71053 8.4078 7.10198 9.35846 7.88488 10.1414C8.66777 10.9243 9.61843 11.3157 10.7368 11.3157ZM10.7368 9.70517C10.0658 9.70517 9.4954 9.47031 9.02567 9.00057C8.55593 8.53083 8.32106 7.96044 8.32106 7.28938C8.32106 6.61833 8.55593 6.04794 9.02567 5.5782C9.4954 5.10846 10.0658 4.87359 10.7368 4.87359C11.4079 4.87359 11.9783 5.10846 12.448 5.5782C12.9178 6.04794 13.1526 6.61833 13.1526 7.28938C13.1526 7.96044 12.9178 8.53083 12.448 9.00057C11.9783 9.47031 11.4079 9.70517 10.7368 9.70517ZM10.7368 13.9999C8.55966 13.9999 6.57632 13.3922 4.78685 12.1769C2.99738 10.9615 1.70001 9.33237 0.894745 7.28938C1.70001 5.2464 2.99738 3.61723 4.78685 2.40188C6.57632 1.18653 8.55966 0.578857 10.7368 0.578857C12.914 0.578857 14.8974 1.18653 16.6868 2.40188C18.4763 3.61723 19.7737 5.2464 20.579 7.28938C19.7737 9.33237 18.4763 10.9615 16.6868 12.1769C14.8974 13.3922 12.914 13.9999 10.7368 13.9999ZM10.7368 12.2104C12.4219 12.2104 13.9691 11.7668 15.3783 10.8795C16.7875 9.99224 17.8649 8.79552 18.6105 7.28938C17.8649 5.78324 16.7875 4.58653 15.3783 3.69925C13.9691 2.81197 12.4219 2.36833 10.7368 2.36833C9.05176 2.36833 7.50461 2.81197 6.0954 3.69925C4.68619 4.58653 3.60878 5.78324 2.86317 7.28938C3.60878 8.79552 4.68619 9.99224 6.0954 10.8795C7.50461 11.7668 9.05176 12.2104 10.7368 12.2104Z" fill="white"/>
</svg>
